<mxfile host="Electron" agent="Mozilla/5.0 (Windows NT 10.0; Win64; x64) AppleWebKit/537.36 (KHTML, like Gecko) draw.io/24.7.17 Chrome/128.0.6613.36 Electron/32.0.1 Safari/537.36" border="50" scale="3" compressed="false" locked="false" version="24.7.17" pages="2">
  <diagram name="Proposed" id="YmL12bMKpDGza6XwsDPr">
    <mxGraphModel dx="3960" dy="3684" grid="0" gridSize="10" guides="1" tooltips="1" connect="1" arrows="0" fold="1" page="0" pageScale="1" pageWidth="827" pageHeight="1169" background="none" math="1" shadow="0">
      <root>
        <mxCell id="X5NqExCQtvZxIxQ7pmgY-0" />
        <mxCell id="1" parent="X5NqExCQtvZxIxQ7pmgY-0" />
        <mxCell id="BASVU8sK8GHN45CdobEa-1" value="" style="rounded=1;whiteSpace=wrap;html=1;fontSize=22;" parent="1" vertex="1">
          <mxGeometry x="1420" y="-1015" width="1328" height="1897" as="geometry" />
        </mxCell>
        <mxCell id="BASVU8sK8GHN45CdobEa-2" value="&lt;div style=&quot;text-align: justify; font-size: 22px;&quot;&gt;Update the status&lt;/div&gt;" style="ellipse;whiteSpace=wrap;html=1;fontSize=22;verticalAlign=middle;" parent="1" vertex="1">
          <mxGeometry x="1926" y="163" width="226.5" height="69" as="geometry" />
        </mxCell>
        <mxCell id="BASVU8sK8GHN45CdobEa-3" value="Customer" style="shape=umlActor;verticalLabelPosition=bottom;verticalAlign=top;html=1;outlineConnect=0;fontSize=22;strokeWidth=5;fillColor=#fff2cc;strokeColor=#d6b656;" parent="1" vertex="1">
          <mxGeometry x="2866" y="-302" width="84" height="149" as="geometry" />
        </mxCell>
        <mxCell id="BASVU8sK8GHN45CdobEa-4" value="&lt;h1 style=&quot;line-height: 160%; font-size: 22px;&quot;&gt;Owner&lt;br style=&quot;font-size: 22px;&quot;&gt;&lt;/h1&gt;" style="shape=umlActor;verticalLabelPosition=bottom;verticalAlign=top;html=1;outlineConnect=0;strokeWidth=5;fontSize=22;fillColor=#dae8fc;strokeColor=#6c8ebf;" parent="1" vertex="1">
          <mxGeometry x="1227" y="-94" width="103" height="169" as="geometry" />
        </mxCell>
        <mxCell id="BASVU8sK8GHN45CdobEa-5" value="Worker" style="shape=umlActor;verticalLabelPosition=bottom;verticalAlign=top;html=1;outlineConnect=0;fontSize=22;fontFamily=Times New Roman;strokeWidth=5;fillColor=#e1d5e7;strokeColor=#9673a6;" parent="1" vertex="1">
          <mxGeometry x="2866" y="141" width="91" height="157" as="geometry" />
        </mxCell>
        <mxCell id="BASVU8sK8GHN45CdobEa-8" value="&#xa;Process Payment&#xa;&#xa;" style="ellipse;whiteSpace=wrap;html=1;fontSize=22;verticalAlign=top;" parent="1" vertex="1">
          <mxGeometry x="1905" y="-133" width="263" height="78" as="geometry" />
        </mxCell>
        <mxCell id="BASVU8sK8GHN45CdobEa-9" value="&lt;font style=&quot;font-size: 22px;&quot;&gt;Online Order Submission&lt;br style=&quot;font-size: 22px;&quot;&gt;&lt;/font&gt;" style="ellipse;whiteSpace=wrap;html=1;verticalAlign=middle;horizontal=1;align=center;fontSize=22;" parent="1" vertex="1">
          <mxGeometry x="2294" y="-648" width="263" height="80" as="geometry" />
        </mxCell>
        <mxCell id="BASVU8sK8GHN45CdobEa-11" value="" style="endArrow=none;html=1;rounded=0;entryX=1;entryY=0.5;entryDx=0;entryDy=0;fontSize=22;" parent="1" source="BASVU8sK8GHN45CdobEa-3" target="BASVU8sK8GHN45CdobEa-9" edge="1">
          <mxGeometry width="50" height="50" relative="1" as="geometry">
            <mxPoint x="2461" y="284" as="sourcePoint" />
            <mxPoint x="2511" y="234" as="targetPoint" />
          </mxGeometry>
        </mxCell>
        <mxCell id="BASVU8sK8GHN45CdobEa-12" value="" style="endArrow=none;html=1;rounded=0;exitX=0;exitY=0.5;exitDx=0;exitDy=0;fontSize=22;" parent="1" source="BASVU8sK8GHN45CdobEa-2" target="BASVU8sK8GHN45CdobEa-4" edge="1">
          <mxGeometry width="50" height="50" relative="1" as="geometry">
            <mxPoint x="1983" y="124" as="sourcePoint" />
            <mxPoint x="1484" y="-5" as="targetPoint" />
          </mxGeometry>
        </mxCell>
        <mxCell id="BASVU8sK8GHN45CdobEa-13" value="" style="endArrow=none;html=1;rounded=0;fontSize=22;" parent="1" source="BASVU8sK8GHN45CdobEa-5" target="BASVU8sK8GHN45CdobEa-2" edge="1">
          <mxGeometry width="50" height="50" relative="1" as="geometry">
            <mxPoint x="2742" y="318" as="sourcePoint" />
            <mxPoint x="2511" y="234" as="targetPoint" />
          </mxGeometry>
        </mxCell>
        <mxCell id="BASVU8sK8GHN45CdobEa-17" value="" style="endArrow=none;html=1;rounded=0;entryX=0;entryY=0.5;entryDx=0;entryDy=0;fontSize=22;" parent="1" source="BASVU8sK8GHN45CdobEa-4" target="BASVU8sK8GHN45CdobEa-8" edge="1">
          <mxGeometry width="50" height="50" relative="1" as="geometry">
            <mxPoint x="2461" y="343" as="sourcePoint" />
            <mxPoint x="2511" y="293" as="targetPoint" />
          </mxGeometry>
        </mxCell>
        <mxCell id="BASVU8sK8GHN45CdobEa-18" value="" style="endArrow=none;html=1;rounded=0;exitX=1;exitY=0.5;exitDx=0;exitDy=0;fontSize=22;" parent="1" source="BASVU8sK8GHN45CdobEa-8" target="BASVU8sK8GHN45CdobEa-3" edge="1">
          <mxGeometry width="50" height="50" relative="1" as="geometry">
            <mxPoint x="2461" y="343" as="sourcePoint" />
            <mxPoint x="2511" y="293" as="targetPoint" />
          </mxGeometry>
        </mxCell>
        <mxCell id="BASVU8sK8GHN45CdobEa-20" value="Use Case Diagram for the&amp;nbsp;Proposed System" style="text;strokeColor=none;fillColor=none;html=1;align=center;verticalAlign=middle;whiteSpace=wrap;rounded=0;fontSize=42;" parent="1" vertex="1">
          <mxGeometry x="1836" y="-1187" width="484.5" height="83" as="geometry" />
        </mxCell>
        <mxCell id="BASVU8sK8GHN45CdobEa-25" value="Work Distribution" style="ellipse;whiteSpace=wrap;html=1;fontSize=22;" parent="1" vertex="1">
          <mxGeometry x="1910" y="75" width="240.5" height="58" as="geometry" />
        </mxCell>
        <mxCell id="BASVU8sK8GHN45CdobEa-26" value="Feedbacks" style="ellipse;whiteSpace=wrap;html=1;fontSize=22;verticalAlign=middle;" parent="1" vertex="1">
          <mxGeometry x="2217" y="-14" width="263" height="80" as="geometry" />
        </mxCell>
        <mxCell id="BASVU8sK8GHN45CdobEa-27" value="" style="endArrow=none;html=1;rounded=0;fontSize=22;" parent="1" source="BASVU8sK8GHN45CdobEa-26" target="BASVU8sK8GHN45CdobEa-3" edge="1">
          <mxGeometry width="50" height="50" relative="1" as="geometry">
            <mxPoint x="2338" y="256" as="sourcePoint" />
            <mxPoint x="2802" y="-153" as="targetPoint" />
          </mxGeometry>
        </mxCell>
        <mxCell id="z4Wlg-TD6rMUuMXjeBsc-1" value="&lt;font style=&quot;font-size: 22px;&quot;&gt;Customer Registration&lt;/font&gt;" style="ellipse;whiteSpace=wrap;html=1;verticalAlign=middle;horizontal=1;align=center;fontSize=22;" parent="1" vertex="1">
          <mxGeometry x="2073" y="-986" width="263" height="80" as="geometry" />
        </mxCell>
        <mxCell id="z4Wlg-TD6rMUuMXjeBsc-2" value="" style="endArrow=none;html=1;rounded=0;entryX=1;entryY=0.5;entryDx=0;entryDy=0;fontSize=22;" parent="1" source="BASVU8sK8GHN45CdobEa-3" target="z4Wlg-TD6rMUuMXjeBsc-1" edge="1">
          <mxGeometry width="50" height="50" relative="1" as="geometry">
            <mxPoint x="2025" y="-112" as="sourcePoint" />
            <mxPoint x="2075" y="-162" as="targetPoint" />
          </mxGeometry>
        </mxCell>
        <mxCell id="z4Wlg-TD6rMUuMXjeBsc-3" value="" style="endArrow=none;html=1;rounded=0;entryX=0;entryY=0.5;entryDx=0;entryDy=0;fontSize=22;" parent="1" source="BASVU8sK8GHN45CdobEa-4" target="BASVU8sK8GHN45CdobEa-25" edge="1">
          <mxGeometry width="50" height="50" relative="1" as="geometry">
            <mxPoint x="2025" y="499" as="sourcePoint" />
            <mxPoint x="2075" y="449" as="targetPoint" />
          </mxGeometry>
        </mxCell>
        <mxCell id="z4Wlg-TD6rMUuMXjeBsc-4" value="" style="endArrow=none;html=1;rounded=0;fontSize=22;" parent="1" source="BASVU8sK8GHN45CdobEa-25" target="BASVU8sK8GHN45CdobEa-5" edge="1">
          <mxGeometry width="50" height="50" relative="1" as="geometry">
            <mxPoint x="1469" y="88" as="sourcePoint" />
            <mxPoint x="2005" y="1010" as="targetPoint" />
          </mxGeometry>
        </mxCell>
        <mxCell id="z4Wlg-TD6rMUuMXjeBsc-6" value="check Order&lt;br style=&quot;font-size: 22px;&quot;&gt;and confirm the order&lt;br style=&quot;font-size: 22px;&quot;&gt;&lt;ul style=&quot;font-size: 22px;&quot;&gt;&lt;li style=&quot;font-size: 22px;&quot;&gt;cannot be repaired&lt;/li&gt;&lt;/ul&gt;" style="ellipse;whiteSpace=wrap;html=1;fontSize=22;verticalAlign=top;horizontal=1;spacing=7;" parent="1" vertex="1">
          <mxGeometry x="1753" y="-398" width="292" height="128" as="geometry" />
        </mxCell>
        <mxCell id="z4Wlg-TD6rMUuMXjeBsc-7" value="" style="endArrow=none;html=1;rounded=0;entryX=0;entryY=0.5;entryDx=0;entryDy=0;fontSize=22;" parent="1" source="BASVU8sK8GHN45CdobEa-4" target="z4Wlg-TD6rMUuMXjeBsc-6" edge="1">
          <mxGeometry width="50" height="50" relative="1" as="geometry">
            <mxPoint x="2025" y="-176" as="sourcePoint" />
            <mxPoint x="2075" y="-226" as="targetPoint" />
          </mxGeometry>
        </mxCell>
        <mxCell id="z4Wlg-TD6rMUuMXjeBsc-8" value="order cancelled" style="ellipse;whiteSpace=wrap;html=1;fontSize=22;" parent="1" vertex="1">
          <mxGeometry x="2206" y="-299" width="216" height="80" as="geometry" />
        </mxCell>
        <mxCell id="z4Wlg-TD6rMUuMXjeBsc-9" value="&lt;font style=&quot;font-size: 22px;&quot;&gt;&amp;lt;&amp;lt;extend&amp;gt;&amp;gt;&lt;/font&gt;" style="html=1;verticalAlign=bottom;endArrow=open;dashed=1;endSize=8;curved=0;rounded=0;entryX=1;entryY=0.5;entryDx=0;entryDy=0;fontSize=22;" parent="1" source="z4Wlg-TD6rMUuMXjeBsc-8" target="z4Wlg-TD6rMUuMXjeBsc-6" edge="1">
          <mxGeometry relative="1" as="geometry">
            <mxPoint x="2090" y="-201" as="sourcePoint" />
            <mxPoint x="2010" y="-201" as="targetPoint" />
          </mxGeometry>
        </mxCell>
        <mxCell id="jEofJOEV6lVEAJybt3JH-1" value="Owner in person&lt;div&gt;&amp;nbsp;inspects customer tyre&lt;/div&gt;" style="ellipse;whiteSpace=wrap;html=1;fontSize=22;" parent="1" vertex="1">
          <mxGeometry x="1510" y="-629" width="258" height="113" as="geometry" />
        </mxCell>
        <mxCell id="jEofJOEV6lVEAJybt3JH-2" value="" style="endArrow=none;html=1;rounded=0;fontSize=22;" parent="1" source="BASVU8sK8GHN45CdobEa-4" target="jEofJOEV6lVEAJybt3JH-1" edge="1">
          <mxGeometry width="50" height="50" relative="1" as="geometry">
            <mxPoint x="2088" y="-89" as="sourcePoint" />
            <mxPoint x="2138" y="-139" as="targetPoint" />
          </mxGeometry>
        </mxCell>
        <mxCell id="jEofJOEV6lVEAJybt3JH-3" value="" style="endArrow=none;html=1;rounded=0;fontSize=22;" parent="1" source="jEofJOEV6lVEAJybt3JH-1" target="BASVU8sK8GHN45CdobEa-3" edge="1">
          <mxGeometry width="50" height="50" relative="1" as="geometry">
            <mxPoint x="2250" y="-89" as="sourcePoint" />
            <mxPoint x="2300" y="-139" as="targetPoint" />
          </mxGeometry>
        </mxCell>
        <mxCell id="jEofJOEV6lVEAJybt3JH-4" value="Manage accounts" style="ellipse;whiteSpace=wrap;html=1;fontSize=22;" parent="1" vertex="1">
          <mxGeometry x="1939" y="450" width="209" height="75" as="geometry" />
        </mxCell>
        <mxCell id="jEofJOEV6lVEAJybt3JH-10" value="" style="endArrow=none;html=1;rounded=0;fontSize=22;" parent="1" source="BASVU8sK8GHN45CdobEa-4" target="jEofJOEV6lVEAJybt3JH-4" edge="1">
          <mxGeometry width="50" height="50" relative="1" as="geometry">
            <mxPoint x="2138" y="545" as="sourcePoint" />
            <mxPoint x="2188" y="495" as="targetPoint" />
          </mxGeometry>
        </mxCell>
        <mxCell id="jEofJOEV6lVEAJybt3JH-12" value="Check the status" style="ellipse;whiteSpace=wrap;html=1;fontSize=22;" parent="1" vertex="1">
          <mxGeometry x="2489" y="50" width="205" height="113" as="geometry" />
        </mxCell>
        <mxCell id="jEofJOEV6lVEAJybt3JH-13" value="" style="endArrow=none;html=1;rounded=0;fontSize=22;" parent="1" source="jEofJOEV6lVEAJybt3JH-12" target="BASVU8sK8GHN45CdobEa-3" edge="1">
          <mxGeometry width="50" height="50" relative="1" as="geometry">
            <mxPoint x="2165" y="237" as="sourcePoint" />
            <mxPoint x="2215" y="187" as="targetPoint" />
          </mxGeometry>
        </mxCell>
        <mxCell id="jEofJOEV6lVEAJybt3JH-15" value="Manage inventory" style="ellipse;whiteSpace=wrap;html=1;fontSize=22;" parent="1" vertex="1">
          <mxGeometry x="1919.12" y="255" width="240.25" height="63" as="geometry" />
        </mxCell>
        <mxCell id="jEofJOEV6lVEAJybt3JH-16" value="" style="endArrow=none;html=1;rounded=0;fontSize=22;" parent="1" source="BASVU8sK8GHN45CdobEa-4" target="jEofJOEV6lVEAJybt3JH-15" edge="1">
          <mxGeometry width="50" height="50" relative="1" as="geometry">
            <mxPoint x="2154" y="417" as="sourcePoint" />
            <mxPoint x="2204" y="367" as="targetPoint" />
          </mxGeometry>
        </mxCell>
        <mxCell id="jEofJOEV6lVEAJybt3JH-18" value="&lt;font style=&quot;font-size: 22px;&quot;&gt;Login&lt;/font&gt;" style="ellipse;whiteSpace=wrap;html=1;fontSize=22;" parent="1" vertex="1">
          <mxGeometry x="2012" y="-737" width="170" height="110" as="geometry" />
        </mxCell>
        <mxCell id="jEofJOEV6lVEAJybt3JH-20" value="Forgot password" style="ellipse;whiteSpace=wrap;html=1;fontSize=22;" parent="1" vertex="1">
          <mxGeometry x="2287" y="-768" width="156" height="93" as="geometry" />
        </mxCell>
        <mxCell id="jEofJOEV6lVEAJybt3JH-30" value="&lt;font style=&quot;font-size: 22px;&quot;&gt;&amp;lt;&amp;lt;extend&amp;gt;&amp;gt;&lt;/font&gt;" style="html=1;verticalAlign=bottom;endArrow=open;dashed=1;endSize=8;curved=0;rounded=0;fontSize=22;" parent="1" source="jEofJOEV6lVEAJybt3JH-20" target="jEofJOEV6lVEAJybt3JH-18" edge="1">
          <mxGeometry relative="1" as="geometry">
            <mxPoint x="1863.0015974416706" y="-320.61281894918375" as="sourcePoint" />
            <mxPoint x="1735.1399999999899" y="-366" as="targetPoint" />
          </mxGeometry>
        </mxCell>
        <mxCell id="jEofJOEV6lVEAJybt3JH-31" value="" style="line;strokeWidth=1;fillColor=none;align=left;verticalAlign=middle;spacingTop=-1;spacingLeft=3;spacingRight=3;rotatable=0;labelPosition=right;points=[];portConstraint=eastwest;strokeColor=inherit;fontSize=22;" parent="1" vertex="1">
          <mxGeometry x="1752" y="-412.5" width="293" height="157" as="geometry" />
        </mxCell>
        <mxCell id="cjmCHWJsZ1U57zTjacqN-2" value="&lt;font style=&quot;font-size: 22px;&quot;&gt;&amp;lt;&amp;lt;extend&amp;gt;&amp;gt;&lt;/font&gt;" style="endArrow=open;endSize=12;dashed=1;html=1;rounded=0;entryX=0.348;entryY=1.013;entryDx=0;entryDy=0;entryPerimeter=0;fontSize=22;" parent="1" source="jEofJOEV6lVEAJybt3JH-1" target="z4Wlg-TD6rMUuMXjeBsc-1" edge="1">
          <mxGeometry width="160" relative="1" as="geometry">
            <mxPoint x="1320" y="-265" as="sourcePoint" />
            <mxPoint x="1480" y="-265" as="targetPoint" />
          </mxGeometry>
        </mxCell>
        <mxCell id="zgNBtfO4YtwGGAF3Knli-1" value="" style="endArrow=none;html=1;rounded=0;fontSize=22;" parent="1" source="BASVU8sK8GHN45CdobEa-4" target="jEofJOEV6lVEAJybt3JH-18" edge="1">
          <mxGeometry width="50" height="50" relative="1" as="geometry">
            <mxPoint x="2380" y="-157" as="sourcePoint" />
            <mxPoint x="2430" y="-207" as="targetPoint" />
          </mxGeometry>
        </mxCell>
        <mxCell id="zgNBtfO4YtwGGAF3Knli-2" value="" style="endArrow=none;html=1;rounded=0;fontSize=22;" parent="1" source="jEofJOEV6lVEAJybt3JH-18" target="BASVU8sK8GHN45CdobEa-3" edge="1">
          <mxGeometry width="50" height="50" relative="1" as="geometry">
            <mxPoint x="2380" y="-41" as="sourcePoint" />
            <mxPoint x="2430" y="-91" as="targetPoint" />
          </mxGeometry>
        </mxCell>
        <mxCell id="zgNBtfO4YtwGGAF3Knli-3" value="" style="endArrow=none;html=1;rounded=0;fontSize=22;" parent="1" source="jEofJOEV6lVEAJybt3JH-18" target="BASVU8sK8GHN45CdobEa-5" edge="1">
          <mxGeometry width="50" height="50" relative="1" as="geometry">
            <mxPoint x="2380" y="-41" as="sourcePoint" />
            <mxPoint x="2430" y="-91" as="targetPoint" />
          </mxGeometry>
        </mxCell>
        <mxCell id="8N_MSQzb9k8BhIBb6NdF-1" value="Attendance Recode" style="ellipse;whiteSpace=wrap;html=1;fontSize=22;" vertex="1" parent="1">
          <mxGeometry x="1935.25" y="362" width="202.5" height="67" as="geometry" />
        </mxCell>
        <mxCell id="8N_MSQzb9k8BhIBb6NdF-2" value="" style="endArrow=none;html=1;rounded=0;fontSize=22;" edge="1" parent="1" source="BASVU8sK8GHN45CdobEa-4" target="8N_MSQzb9k8BhIBb6NdF-1">
          <mxGeometry width="50" height="50" relative="1" as="geometry">
            <mxPoint x="1340" y="32" as="sourcePoint" />
            <mxPoint x="1966" y="420" as="targetPoint" />
          </mxGeometry>
        </mxCell>
        <mxCell id="8N_MSQzb9k8BhIBb6NdF-3" value="" style="endArrow=none;html=1;rounded=0;fontSize=22;" edge="1" parent="1" source="BASVU8sK8GHN45CdobEa-5" target="8N_MSQzb9k8BhIBb6NdF-1">
          <mxGeometry width="50" height="50" relative="1" as="geometry">
            <mxPoint x="1350" y="42" as="sourcePoint" />
            <mxPoint x="1978" y="592" as="targetPoint" />
          </mxGeometry>
        </mxCell>
        <mxCell id="8N_MSQzb9k8BhIBb6NdF-4" value="Worker_messages" style="ellipse;whiteSpace=wrap;html=1;fontSize=22;verticalAlign=middle;" vertex="1" parent="1">
          <mxGeometry x="2406" y="614" width="263" height="80" as="geometry" />
        </mxCell>
        <mxCell id="8N_MSQzb9k8BhIBb6NdF-6" value="" style="endArrow=none;html=1;rounded=0;fontSize=22;" edge="1" parent="1" source="BASVU8sK8GHN45CdobEa-5" target="8N_MSQzb9k8BhIBb6NdF-4">
          <mxGeometry width="50" height="50" relative="1" as="geometry">
            <mxPoint x="2876" y="243" as="sourcePoint" />
            <mxPoint x="2135" y="469" as="targetPoint" />
          </mxGeometry>
        </mxCell>
        <mxCell id="8N_MSQzb9k8BhIBb6NdF-7" value="Our Products" style="ellipse;whiteSpace=wrap;html=1;fontSize=22;" vertex="1" parent="1">
          <mxGeometry x="1943.37" y="541" width="216" height="70" as="geometry" />
        </mxCell>
        <mxCell id="8N_MSQzb9k8BhIBb6NdF-8" value="" style="endArrow=none;html=1;rounded=0;fontSize=22;entryX=0;entryY=0.5;entryDx=0;entryDy=0;" edge="1" parent="1" source="BASVU8sK8GHN45CdobEa-4" target="8N_MSQzb9k8BhIBb6NdF-7">
          <mxGeometry width="50" height="50" relative="1" as="geometry">
            <mxPoint x="1340" y="56" as="sourcePoint" />
            <mxPoint x="1815" y="570" as="targetPoint" />
          </mxGeometry>
        </mxCell>
        <mxCell id="8N_MSQzb9k8BhIBb6NdF-9" value="Recode the Suppliers Detals" style="ellipse;whiteSpace=wrap;html=1;fontSize=22;" vertex="1" parent="1">
          <mxGeometry x="1892" y="-30" width="263" height="80" as="geometry" />
        </mxCell>
        <mxCell id="8N_MSQzb9k8BhIBb6NdF-10" value="" style="endArrow=none;html=1;rounded=0;fontSize=22;" edge="1" parent="1" source="BASVU8sK8GHN45CdobEa-4" target="8N_MSQzb9k8BhIBb6NdF-9">
          <mxGeometry width="50" height="50" relative="1" as="geometry">
            <mxPoint x="1340" y="-6" as="sourcePoint" />
            <mxPoint x="1915" y="-84" as="targetPoint" />
          </mxGeometry>
        </mxCell>
        <mxCell id="8N_MSQzb9k8BhIBb6NdF-11" value="Update tire patterns" style="ellipse;whiteSpace=wrap;html=1;fontSize=22;" vertex="1" parent="1">
          <mxGeometry x="1537" y="645" width="216" height="70" as="geometry" />
        </mxCell>
        <mxCell id="8N_MSQzb9k8BhIBb6NdF-12" value="" style="endArrow=none;html=1;rounded=0;fontSize=22;" edge="1" parent="1" source="BASVU8sK8GHN45CdobEa-4" target="8N_MSQzb9k8BhIBb6NdF-11">
          <mxGeometry width="50" height="50" relative="1" as="geometry">
            <mxPoint x="1340" y="46" as="sourcePoint" />
            <mxPoint x="1960" y="590" as="targetPoint" />
          </mxGeometry>
        </mxCell>
        <mxCell id="8N_MSQzb9k8BhIBb6NdF-13" value="Worker&lt;br&gt;Process Payment&lt;div&gt;&lt;br/&gt;&lt;/div&gt;" style="ellipse;whiteSpace=wrap;html=1;fontSize=22;verticalAlign=top;" vertex="1" parent="1">
          <mxGeometry x="1892" y="752" width="263" height="78" as="geometry" />
        </mxCell>
        <mxCell id="8N_MSQzb9k8BhIBb6NdF-14" value="" style="endArrow=none;html=1;rounded=0;fontSize=22;entryX=0;entryY=0.5;entryDx=0;entryDy=0;" edge="1" parent="1" source="BASVU8sK8GHN45CdobEa-4" target="8N_MSQzb9k8BhIBb6NdF-13">
          <mxGeometry width="50" height="50" relative="1" as="geometry">
            <mxPoint x="1333" y="85" as="sourcePoint" />
            <mxPoint x="1637" y="656" as="targetPoint" />
          </mxGeometry>
        </mxCell>
        <mxCell id="8N_MSQzb9k8BhIBb6NdF-15" value="" style="endArrow=none;html=1;rounded=0;fontSize=22;entryX=1;entryY=0.5;entryDx=0;entryDy=0;" edge="1" parent="1" source="BASVU8sK8GHN45CdobEa-5" target="8N_MSQzb9k8BhIBb6NdF-13">
          <mxGeometry width="50" height="50" relative="1" as="geometry">
            <mxPoint x="2886" y="253" as="sourcePoint" />
            <mxPoint x="2598" y="516" as="targetPoint" />
          </mxGeometry>
        </mxCell>
        <mxCell id="8N_MSQzb9k8BhIBb6NdF-16" value="&lt;div&gt;&lt;span style=&quot;background-color: initial;&quot;&gt;Update the&amp;nbsp;&lt;/span&gt;&lt;/div&gt;&lt;div&gt;&lt;span style=&quot;background-color: initial;&quot;&gt;Stocks Levels&lt;/span&gt;&lt;br&gt;&lt;/div&gt;" style="ellipse;whiteSpace=wrap;html=1;fontSize=22;verticalAlign=top;" vertex="1" parent="1">
          <mxGeometry x="1919" y="634" width="263" height="78" as="geometry" />
        </mxCell>
        <mxCell id="8N_MSQzb9k8BhIBb6NdF-17" value="" style="endArrow=none;html=1;rounded=0;fontSize=22;entryX=0;entryY=0.5;entryDx=0;entryDy=0;" edge="1" parent="1" source="BASVU8sK8GHN45CdobEa-4" target="8N_MSQzb9k8BhIBb6NdF-16">
          <mxGeometry width="50" height="50" relative="1" as="geometry">
            <mxPoint x="1340" y="68" as="sourcePoint" />
            <mxPoint x="1902" y="801" as="targetPoint" />
          </mxGeometry>
        </mxCell>
        <mxCell id="8N_MSQzb9k8BhIBb6NdF-18" value="" style="endArrow=none;html=1;rounded=0;fontSize=22;entryX=1;entryY=0.5;entryDx=0;entryDy=0;" edge="1" parent="1" source="BASVU8sK8GHN45CdobEa-5" target="8N_MSQzb9k8BhIBb6NdF-16">
          <mxGeometry width="50" height="50" relative="1" as="geometry">
            <mxPoint x="2876" y="264" as="sourcePoint" />
            <mxPoint x="2165" y="801" as="targetPoint" />
          </mxGeometry>
        </mxCell>
      </root>
    </mxGraphModel>
  </diagram>
  <diagram id="xQNVnkqrWzyzBVPZ-Xyn" name="Currunt">
    <mxGraphModel dx="3183" dy="2480" grid="1" gridSize="10" guides="1" tooltips="1" connect="1" arrows="1" fold="1" page="1" pageScale="1" pageWidth="850" pageHeight="1100" math="0" shadow="0">
      <root>
        <mxCell id="0" />
        <mxCell id="1" parent="0" />
        <mxCell id="Smb2dAF-LG7ZXGUNU8pm-1" value="" style="rounded=1;whiteSpace=wrap;html=1;fillColor=#f5f5f5;strokeColor=#666666;fontColor=#333333;" parent="1" vertex="1">
          <mxGeometry x="-340" y="-935" width="690" height="1085" as="geometry" />
        </mxCell>
        <mxCell id="Smb2dAF-LG7ZXGUNU8pm-2" value="&lt;div style=&quot;text-align: justify;&quot;&gt;&lt;br&gt;&lt;/div&gt;&lt;div style=&quot;text-align: justify;&quot;&gt;&lt;span style=&quot;background-color: initial;&quot;&gt;Inspect Tyre&lt;/span&gt;&lt;/div&gt;&lt;div style=&quot;text-align: justify;&quot;&gt;&lt;br&gt;&lt;/div&gt;" style="ellipse;whiteSpace=wrap;html=1;fontSize=24;verticalAlign=top;" parent="1" vertex="1">
          <mxGeometry x="-129" y="-462" width="263" height="95" as="geometry" />
        </mxCell>
        <mxCell id="Smb2dAF-LG7ZXGUNU8pm-3" value="Customer" style="shape=umlActor;verticalLabelPosition=bottom;verticalAlign=top;html=1;outlineConnect=0;fontSize=24;strokeWidth=5;fillColor=#ffe6cc;strokeColor=#d79b00;" parent="1" vertex="1">
          <mxGeometry x="450" y="-757" width="70" height="149" as="geometry" />
        </mxCell>
        <mxCell id="Smb2dAF-LG7ZXGUNU8pm-4" value="&lt;h1 style=&quot;line-height: 160%;&quot;&gt;Owner&lt;br&gt;&lt;/h1&gt;" style="shape=umlActor;verticalLabelPosition=bottom;verticalAlign=top;html=1;outlineConnect=0;strokeWidth=5;fillColor=#dae8fc;strokeColor=#6c8ebf;" parent="1" vertex="1">
          <mxGeometry x="-550" y="-499" width="83" height="169" as="geometry" />
        </mxCell>
        <mxCell id="Smb2dAF-LG7ZXGUNU8pm-5" value="Worker" style="shape=umlActor;verticalLabelPosition=bottom;verticalAlign=top;html=1;outlineConnect=0;fontSize=24;fontFamily=Times New Roman;strokeWidth=5;fillColor=#e1d5e7;strokeColor=#9673a6;" parent="1" vertex="1">
          <mxGeometry x="450" y="-430" width="70" height="157" as="geometry" />
        </mxCell>
        <mxCell id="Smb2dAF-LG7ZXGUNU8pm-6" value="Assign the Worker" style="ellipse;whiteSpace=wrap;html=1;fontSize=24;" parent="1" vertex="1">
          <mxGeometry x="-133" y="-309" width="263" height="80" as="geometry" />
        </mxCell>
        <mxCell id="Smb2dAF-LG7ZXGUNU8pm-7" value="&#xa;Create Invoice&#xa;&#xa;" style="ellipse;whiteSpace=wrap;html=1;fontSize=20;verticalAlign=top;" parent="1" vertex="1">
          <mxGeometry x="-127" y="-779" width="263" height="80" as="geometry" />
        </mxCell>
        <mxCell id="Smb2dAF-LG7ZXGUNU8pm-8" value="&#xa;Process Payment&#xa;&#xa;" style="ellipse;whiteSpace=wrap;html=1;fontSize=23;verticalAlign=top;" parent="1" vertex="1">
          <mxGeometry x="-122.5" y="-616" width="263" height="80" as="geometry" />
        </mxCell>
        <mxCell id="Smb2dAF-LG7ZXGUNU8pm-9" value="&lt;font style=&quot;font-size: 24px;&quot;&gt;&lt;br&gt;Customer Arrival&lt;br&gt;&lt;/font&gt;" style="ellipse;whiteSpace=wrap;html=1;verticalAlign=top;horizontal=1;align=center;" parent="1" vertex="1">
          <mxGeometry x="-133" y="-905" width="263" height="85" as="geometry" />
        </mxCell>
        <mxCell id="Smb2dAF-LG7ZXGUNU8pm-10" value="" style="endArrow=none;html=1;rounded=0;entryX=0;entryY=0.5;entryDx=0;entryDy=0;" parent="1" source="Smb2dAF-LG7ZXGUNU8pm-4" target="Smb2dAF-LG7ZXGUNU8pm-9" edge="1">
          <mxGeometry width="50" height="50" relative="1" as="geometry">
            <mxPoint x="-639" y="-705" as="sourcePoint" />
            <mxPoint x="-589" y="-755" as="targetPoint" />
          </mxGeometry>
        </mxCell>
        <mxCell id="Smb2dAF-LG7ZXGUNU8pm-11" value="" style="endArrow=none;html=1;rounded=0;entryX=1;entryY=0.5;entryDx=0;entryDy=0;" parent="1" source="Smb2dAF-LG7ZXGUNU8pm-3" target="Smb2dAF-LG7ZXGUNU8pm-9" edge="1">
          <mxGeometry width="50" height="50" relative="1" as="geometry">
            <mxPoint x="333" y="-375" as="sourcePoint" />
            <mxPoint x="383" y="-425" as="targetPoint" />
          </mxGeometry>
        </mxCell>
        <mxCell id="Smb2dAF-LG7ZXGUNU8pm-12" value="" style="endArrow=none;html=1;rounded=0;exitX=0;exitY=0.5;exitDx=0;exitDy=0;" parent="1" source="Smb2dAF-LG7ZXGUNU8pm-2" target="Smb2dAF-LG7ZXGUNU8pm-4" edge="1">
          <mxGeometry width="50" height="50" relative="1" as="geometry">
            <mxPoint x="-145" y="-535" as="sourcePoint" />
            <mxPoint x="-644" y="-664" as="targetPoint" />
          </mxGeometry>
        </mxCell>
        <mxCell id="Smb2dAF-LG7ZXGUNU8pm-13" value="" style="endArrow=none;html=1;rounded=0;entryX=1;entryY=0.5;entryDx=0;entryDy=0;" parent="1" source="Smb2dAF-LG7ZXGUNU8pm-5" target="Smb2dAF-LG7ZXGUNU8pm-2" edge="1">
          <mxGeometry width="50" height="50" relative="1" as="geometry">
            <mxPoint x="614" y="-341" as="sourcePoint" />
            <mxPoint x="383" y="-425" as="targetPoint" />
          </mxGeometry>
        </mxCell>
        <mxCell id="Smb2dAF-LG7ZXGUNU8pm-14" value="" style="endArrow=none;html=1;rounded=0;entryX=0.052;entryY=0.331;entryDx=0;entryDy=0;entryPerimeter=0;" parent="1" source="Smb2dAF-LG7ZXGUNU8pm-4" target="Smb2dAF-LG7ZXGUNU8pm-6" edge="1">
          <mxGeometry width="50" height="50" relative="1" as="geometry">
            <mxPoint x="-628" y="-619" as="sourcePoint" />
            <mxPoint x="383" y="-425" as="targetPoint" />
          </mxGeometry>
        </mxCell>
        <mxCell id="Smb2dAF-LG7ZXGUNU8pm-15" value="" style="endArrow=none;html=1;rounded=0;exitX=1;exitY=0.5;exitDx=0;exitDy=0;" parent="1" source="Smb2dAF-LG7ZXGUNU8pm-6" target="Smb2dAF-LG7ZXGUNU8pm-5" edge="1">
          <mxGeometry width="50" height="50" relative="1" as="geometry">
            <mxPoint x="333" y="-375" as="sourcePoint" />
            <mxPoint x="606" y="-302" as="targetPoint" />
          </mxGeometry>
        </mxCell>
        <mxCell id="Smb2dAF-LG7ZXGUNU8pm-16" value="" style="endArrow=none;html=1;rounded=0;entryX=0;entryY=0.5;entryDx=0;entryDy=0;" parent="1" source="Smb2dAF-LG7ZXGUNU8pm-4" target="Smb2dAF-LG7ZXGUNU8pm-7" edge="1">
          <mxGeometry width="50" height="50" relative="1" as="geometry">
            <mxPoint x="-640" y="-553" as="sourcePoint" />
            <mxPoint x="383" y="-425" as="targetPoint" />
          </mxGeometry>
        </mxCell>
        <mxCell id="Smb2dAF-LG7ZXGUNU8pm-17" value="" style="endArrow=none;html=1;rounded=0;entryX=0;entryY=0.5;entryDx=0;entryDy=0;" parent="1" source="Smb2dAF-LG7ZXGUNU8pm-4" target="Smb2dAF-LG7ZXGUNU8pm-8" edge="1">
          <mxGeometry width="50" height="50" relative="1" as="geometry">
            <mxPoint x="333" y="-316" as="sourcePoint" />
            <mxPoint x="383" y="-366" as="targetPoint" />
          </mxGeometry>
        </mxCell>
        <mxCell id="Smb2dAF-LG7ZXGUNU8pm-18" value="" style="endArrow=none;html=1;rounded=0;exitX=1;exitY=0.5;exitDx=0;exitDy=0;" parent="1" source="Smb2dAF-LG7ZXGUNU8pm-8" target="Smb2dAF-LG7ZXGUNU8pm-3" edge="1">
          <mxGeometry width="50" height="50" relative="1" as="geometry">
            <mxPoint x="333" y="-316" as="sourcePoint" />
            <mxPoint x="383" y="-366" as="targetPoint" />
          </mxGeometry>
        </mxCell>
        <mxCell id="Smb2dAF-LG7ZXGUNU8pm-19" value="" style="endArrow=none;html=1;rounded=0;entryX=1;entryY=0.5;entryDx=0;entryDy=0;" parent="1" source="Smb2dAF-LG7ZXGUNU8pm-3" target="Smb2dAF-LG7ZXGUNU8pm-7" edge="1">
          <mxGeometry width="50" height="50" relative="1" as="geometry">
            <mxPoint x="333" y="-316" as="sourcePoint" />
            <mxPoint x="383" y="-366" as="targetPoint" />
          </mxGeometry>
        </mxCell>
        <mxCell id="Smb2dAF-LG7ZXGUNU8pm-20" value="Use Case Diagram for the currunt System" style="text;strokeColor=none;fillColor=none;html=1;align=center;verticalAlign=middle;whiteSpace=wrap;rounded=0;fontSize=39;" parent="1" vertex="1">
          <mxGeometry x="-243.75" y="-1060" width="484.5" height="83" as="geometry" />
        </mxCell>
        <mxCell id="Smb2dAF-LG7ZXGUNU8pm-21" value="Record the service details" style="ellipse;whiteSpace=wrap;html=1;fontSize=24;" parent="1" vertex="1">
          <mxGeometry x="-137" y="-39" width="263" height="80" as="geometry" />
        </mxCell>
        <mxCell id="Smb2dAF-LG7ZXGUNU8pm-22" value="" style="endArrow=none;html=1;rounded=0;fontSize=12;startSize=8;endSize=8;curved=1;exitX=1;exitY=1;exitDx=0;exitDy=0;exitPerimeter=0;entryX=0;entryY=0.5;entryDx=0;entryDy=0;" parent="1" source="Smb2dAF-LG7ZXGUNU8pm-4" target="Smb2dAF-LG7ZXGUNU8pm-21" edge="1">
          <mxGeometry width="50" height="50" relative="1" as="geometry">
            <mxPoint x="69" y="-287" as="sourcePoint" />
            <mxPoint x="119" y="-337" as="targetPoint" />
          </mxGeometry>
        </mxCell>
        <mxCell id="Smb2dAF-LG7ZXGUNU8pm-23" value="&#xa;Service Performed&#xa;&#xa;" style="ellipse;whiteSpace=wrap;html=1;fontSize=24;verticalAlign=top;" parent="1" vertex="1">
          <mxGeometry x="-129" y="-181" width="263" height="80" as="geometry" />
        </mxCell>
        <mxCell id="Smb2dAF-LG7ZXGUNU8pm-24" value="" style="endArrow=none;html=1;rounded=0;exitX=1;exitY=0.5;exitDx=0;exitDy=0;" parent="1" source="Smb2dAF-LG7ZXGUNU8pm-23" target="Smb2dAF-LG7ZXGUNU8pm-5" edge="1">
          <mxGeometry width="50" height="50" relative="1" as="geometry">
            <mxPoint x="340" y="-108" as="sourcePoint" />
            <mxPoint x="675" y="-333" as="targetPoint" />
          </mxGeometry>
        </mxCell>
      </root>
    </mxGraphModel>
  </diagram>
</mxfile>
